<?xml version="1.0" encoding="utf-8"?>
<!-- Generator: Adobe Illustrator 18.1.1, SVG Export Plug-In . SVG Version: 6.00 Build 0)  -->
<svg version="1.1" id="Layer_1" xmlns="http://www.w3.org/2000/svg" xmlns:xlink="http://www.w3.org/1999/xlink" x="0px" y="0px"
	 viewBox="0 0 350 300" enable-background="new 0 0 350 300" xml:space="preserve">
<g>
	<polygon fill="#83A4D4" points="134.2,174.5 163,186 163,178.6 146.4,171.8 163,164.6 163,157.2 134.2,168.7 	"/>
	<polygon fill="#83A4D4" points="165.2,188.9 171.4,191 188.2,148.8 182,146.6 	"/>
	<polygon fill="#83A4D4" points="191.8,164.6 208.4,171.8 191.8,178.6 191.8,186 220.6,174.5 220.6,168.7 191.8,157.2 	"/>
	<path fill="#83A4D4" d="M102.5,96h-6l-1.7,9.6h-4.3l1.7-9.6h-6l-1.7,9.6H79v4.8h4.8l-0.7,7.2H79v4.8h3.4l-1.7,9.6h6l1.7-9.6h4.3
		L91,132h6l1.7-9.6h4.3v-4.8h-3.6l0.7-7.2h5.3v-4.8h-4.6L102.5,96z M93.4,117.6h-4.3l0.7-7.2h4.3L93.4,117.6z"/>
	<path fill="#83A4D4" d="M285.9,48H64.1c-5,0-9.1,4.1-9.1,9.1v154.6c0,5,4.1,9.1,9.1,9.1h221.8c5,0,9.1-4.1,9.1-9.1V57.1
		C295,52.1,290.9,48,285.9,48z M110.2,58.8c3.4,0,6,2.6,6,6s-2.6,6-6,6s-6-2.6-6-6C104.4,61.7,107.1,58.8,110.2,58.8z M92.2,58.8
		c3.4,0,6,2.6,6,6s-2.6,6-6,6c-3.4,0-6-2.6-6-6C86.2,61.7,88.8,58.8,92.2,58.8z M74,58.8c3.4,0,6,2.6,6,6s-2.6,6-6,6s-5.8-2.6-5.8-6
		C68.2,61.7,70.8,58.8,74,58.8z M280.6,194.6c0,5.3-4.3,9.4-9.4,9.4H74c-5,0-9.4-4.3-9.4-9.4V91c0-5,4.3-9.4,9.4-9.4h197
		c5.3,0,9.4,4.3,9.4,9.4v103.7H280.6z"/>
	<path fill="#83A4D4" d="M236,100.3c-1.2,1.2-1,3.1-1,5.3v8.2c0,0.7-1,1.2-1.2,1.7c-0.2,0.5-1.2,0.7-1.4,1c-0.2,0.2-0.7,0.5-1,0.5
		c-0.5,0-1.2,0.2-1.2,0.2v5.3c0,0,0.7,0,1.2,0.2c0.5,0,1,0.2,1.2,0.5c0.2,0.2,1.2,0.7,1.2,1c0.2,0.5,1.2,1,1.2,1.7v7.9
		c0,2.2-0.2,3.1,1,4.3s1.9,1.2,3.8,1.2h7.2v-4.8h-3.4c-1,0-1.2,0.5-1.4-0.2c-0.2-0.7,0-0.5,0-1.2v-7.7c0-1-0.5-1.9-1-2.6
		c-0.5-0.7-0.7-1.2-1.2-1.7c-0.5-0.5-0.7-0.7-1.2-1c-0.5-0.2-1.2-0.2-1.2-0.2l0,0c0,0,0.7-0.2,1.2-0.5c0.5-0.2,1-0.5,1.4-1
		c0.5-0.5,1.2-1,1.4-1.7c0.2-0.7,0.7-1.4,0.7-2.4v-7.9c0-0.7-0.2-1.4,0-2.2c0.2-0.7,0.5-1,1.4-1h3.1v-4.8h-7.2
		C237.9,98.4,237.2,99.1,236,100.3z"/>
	<path fill="#83A4D4" d="M268.8,116.4c-0.2-0.2-1.2-0.5-1.4-1s-1.2-1-1.2-1.7v-8.2c0-2.2,0.2-3.8-1-5.3c-1.2-1.2-1.9-1.9-3.8-1.9
		h-7.2v4.8h3.4c1,0,1.2,0.5,1.4,1c0.2,0.7,0,1.4,0,2.2v7.9c0,1,0.5,1.7,0.7,2.4c0.2,0.7,1,1.2,1.4,1.7c0.5,0.5,1,0.7,1.4,1
		c0.5,0.2,1.2,0.2,1.2,0.5l0,0c0,0-0.7,0.2-1.2,0.2c-0.5,0.2-0.7,0.5-1.2,1c-0.5,0.5-1,1-1.2,1.7c-0.2,0.7-1.2,1.4-1.2,2.4v7.7
		c0,0.7,0.2,0.7,0,1.2c-0.2,0.5-0.5,0.2-1.4,0.2h-3.4v4.8h7.2c1.9,0,2.6,0.2,3.8-1.2c1.2-1.2,1-2.2,1-4.3v-7.9c0-0.7,1-1.4,1.2-1.7
		c0.2-0.5,1-0.7,1.2-1c0.2-0.2,0.7-0.5,1.2-0.5c0.5,0,1.2-0.2,1.2-0.2v-5.3c0,0-0.7,0-1.2-0.2C269.6,116.9,269.1,116.6,268.8,116.4z
		"/>
</g>
</svg>
