<?xml version="1.0" encoding="utf-8"?>
<!-- Generator: Adobe Illustrator 18.1.1, SVG Export Plug-In . SVG Version: 6.00 Build 0)  -->
<svg version="1.1" id="Layer_1" xmlns="http://www.w3.org/2000/svg" xmlns:xlink="http://www.w3.org/1999/xlink" x="0px" y="0px"
	 viewBox="0 0 350 300" enable-background="new 0 0 350 300" xml:space="preserve">
<g>
	<rect x="88.8" y="103" fill="#83A4D4" width="76.6" height="70.8"/>
</g>
<g>
	<path fill="#83A4D4" d="M248.7,156h-71.5c-1.9,0-3.6-1.7-3.6-3.6s1.7-3.6,3.6-3.6h71.5c1.9,0,3.6,1.7,3.6,3.6
		C252.3,154.6,250.6,156,248.7,156z"/>
</g>
<g>
	<path fill="#83A4D4" d="M248.7,173.3h-71.5c-1.9,0-3.6-1.7-3.6-3.6c0-1.9,1.7-3.6,3.6-3.6h71.5c1.9,0,3.6,1.7,3.6,3.6
		C252.3,171.6,250.6,173.3,248.7,173.3z"/>
</g>
<g>
	<path fill="#83A4D4" d="M248.7,190.3H90c-1.9,0-3.6-1.7-3.6-3.6c0-1.9,1.7-3.6,3.6-3.6h158.6c1.9,0,3.6,1.7,3.6,3.6
		C252.3,188.6,250.6,190.3,248.7,190.3z"/>
</g>
<g>
	<path fill="#83A4D4" d="M248.7,207.4H90c-1.9,0-3.6-1.7-3.6-3.6c0-1.9,1.7-3.6,3.6-3.6h158.6c1.9,0,3.6,1.7,3.6,3.6
		S250.6,207.4,248.7,207.4z"/>
</g>
<g>
	<path fill="#83A4D4" d="M248.7,224.4H90c-1.9,0-3.6-1.7-3.6-3.6c0-1.9,1.7-3.6,3.6-3.6h158.6c1.9,0,3.6,1.7,3.6,3.6
		C252.3,222.7,250.6,224.4,248.7,224.4z"/>
</g>
<g>
	<path fill="#83A4D4" d="M248.7,241.4H90c-1.9,0-3.6-1.7-3.6-3.6c0-1.9,1.7-3.6,3.6-3.6h158.6c1.9,0,3.6,1.7,3.6,3.6
		C252.3,239.8,250.6,241.4,248.7,241.4z"/>
</g>
<path fill="#83A4D4" d="M286.1,49.2c-5.3-6.5-13.4-10.3-22.6-10.3c-7,0-14.6,2.2-22.1,6.2c-8.2-11.5-19-18.2-30-18.2
	c-12.2,0-22.6,8.2-27.6,21.1H76.4c-7.7,0-13.9,6.2-13.9,13.9v6v182.4c0,7.7,6.2,13.9,13.9,13.9h188.4c7.7,0,13.9-6.2,13.9-13.9V101
	c6.5-7,11.3-14.4,13-22.1C294,67.2,292.1,56.6,286.1,49.2z M100.4,64.3H181c0.2,2.6,0.5,5.3,1,7.9h-81.6c-2.2,0-3.8-1.7-3.8-3.8
	C96.5,66,98.2,64.3,100.4,64.3z M83.8,61.4c3.8,0,6.7,3.1,6.7,6.7s-3.1,6.7-6.7,6.7s-6.7-2.9-6.7-6.7C77.1,64.6,80.2,61.4,83.8,61.4
	z M264.8,252H76.4c-1,0-1.9-1-1.9-1.9V86.6h112.1c10.3,25.2,31.2,49.7,32.4,51.1c0.7,0.7,1.7,1.2,2.9,1.2c0.5,0,1,0,1.7-0.2
	c1.4-0.7,24.2-11.3,43.2-26.6v138.2C266.4,251,265.7,252,264.8,252z M284.2,77.3c-5.3,24-50.2,47.8-61.4,53.3
	c-7.9-9.8-39.1-49.9-33.8-73.9c2.9-13.9,11.5-22.3,22.6-22.3c9.4,0,18.7,6.5,25.7,17.8c1.2,1.7,3.4,2.2,5,1.2
	c7.2-4.6,14.6-6.7,21.1-6.7c7,0,13,2.6,16.8,7.4C284.9,59.5,286.4,67.9,284.2,77.3z"/>
</svg>
