<?xml version="1.0" encoding="utf-8"?>
<!-- Generator: Adobe Illustrator 18.1.1, SVG Export Plug-In . SVG Version: 6.00 Build 0)  -->
<svg version="1.1" id="Layer_1" xmlns="http://www.w3.org/2000/svg" xmlns:xlink="http://www.w3.org/1999/xlink" x="0px" y="0px"
	 viewBox="0 0 350 300" enable-background="new 0 0 350 300" xml:space="preserve">
<g>
	<g>
		<path fill="#83A4D4" d="M289.7,226.1c-1.4,0-2.9-1.2-2.9-2.9v-45.8c0-18.2-14.6-32.9-32.9-32.9c-1.4,0-2.9-1.2-2.9-2.9V92.4
			c0-5-4.1-9.1-9.1-9.1c-1.4,0-2.9-1.2-2.9-2.9c0-1.4,1.2-2.9,2.9-2.9l0,0c8.2,0,14.6,6.5,14.6,14.6v46.3
			c19.9,1.4,35.8,18,35.8,38.4v46.3C292.6,224.9,291.4,226.1,289.7,226.1z"/>
	</g>
	<g>
		<path fill="#83A4D4" d="M242.2,205.4h-163c-8.2,0-14.6-6.5-14.6-14.6v-49.2c0-1.4,1.2-2.9,2.9-2.9h13.2c0.7,0,1.4,0.2,1.9,0.7
			c0.5,0.5,0.7,1.2,0.7,1.9c0,3.1,1.2,6,3.4,8.2c2.2,2.2,5,3.4,8.2,3.4c6.2,0,11.5-5,11.5-11.5c0-6.2-5-11.5-11.5-11.5
			c-2.4,0-4.8,0.7-6.7,2.2c-1.2,1-2.9,0.7-3.8-0.5c-1-1.2-0.7-2.9,0.5-3.8c2.9-2.2,6.5-3.4,10.1-3.4c9.4,0,17,7.7,17,17
			c0,9.4-7.7,17-17,17c-4.6,0-8.9-1.7-12-5c-2.6-2.6-4.3-5.8-4.8-9.4h-7.9v46.3c0,5,4.1,9.1,9.1,9.1h163c5,0,9.1-4.1,9.1-9.1v-30.2
			c0-1.4,1.2-2.9,2.9-2.9s2.9,1.2,2.9,2.9v30.7C256.8,199,250.4,205.4,242.2,205.4z"/>
	</g>
	<g>
		<path fill="#83A4D4" d="M151.2,142.1c-0.7,0-1.4-0.2-1.9-0.7c-0.7-0.7-1-1.9-0.7-2.9l7.7-20.4c0.2-0.5,0.2-0.7,0.7-1l33.4-33.4
			H79.5l0,0c-5,0-9.1,4.1-9.1,9.1v32.9c0,1.4-1.2,2.9-2.9,2.9c-1.7-0.2-2.9-1.4-2.9-3.1V92.6c0-8.2,6.5-14.6,14.6-14.6l0,0h117.6
			c1.2,0,2.2,0.7,2.6,1.7c0.5,1,0.2,2.2-0.7,3.1l-37.7,37.7l-5.3,14.2l14.6-5.5c1.4-0.5,3.1,0.2,3.6,1.7s-0.2,3.1-1.7,3.6l-20.4,7.7
			C151.7,142.1,151.5,142.1,151.2,142.1z"/>
	</g>
	<g>
		<g>
			<path fill="#83A4D4" d="M106.6,118.1H82.8c-1.4,0-2.9-1.2-2.9-2.9s1.2-2.9,2.9-2.9h23.8c1.4,0,2.9,1.2,2.9,2.9
				S108.3,118.1,106.6,118.1z"/>
		</g>
		<g>
			<path fill="#83A4D4" d="M106.6,106.1H82.8c-1.4,0-2.9-1.2-2.9-2.9s1.2-2.9,2.9-2.9h23.8c1.4,0,2.9,1.2,2.9,2.9
				S108.3,106.1,106.6,106.1z"/>
		</g>
	</g>
	<g>
		<g>
			<path fill="#83A4D4" d="M106.6,182.9H82.8c-1.4,0-2.9-1.2-2.9-2.9s1.2-2.9,2.9-2.9h23.8c1.4,0,2.9,1.2,2.9,2.9
				S108.3,182.9,106.6,182.9z"/>
		</g>
		<g>
			<path fill="#83A4D4" d="M106.6,170.9L106.6,170.9H82.8c-1.4,0-2.9-1.2-2.9-2.9s1.2-2.9,2.9-2.9l0,0h23.8c1.4,0,2.9,1.2,2.9,2.9
				S108.3,170.9,106.6,170.9z"/>
		</g>
	</g>
	<g>
		<path fill="#83A4D4" d="M245.6,55.2c-0.7,0-1.4-0.2-1.9-0.7c-1.2-1.2-1.2-2.9,0-3.8l7-7c0.5-0.5,0.7-1.2,0.7-1.7
			c0-0.7-0.2-1.2-0.7-1.7c-1-1-2.6-1-3.6,0l-7,7c-1.2,1.2-2.9,1.2-3.8,0c-1.2-1.2-1.2-2.9,0-3.8l7-7c3.1-3.1,8.4-3.1,11.5,0
			c1.4,1.4,2.4,3.6,2.4,5.8s-1,4.3-2.4,5.8l-7,7C247,55,246.3,55.2,245.6,55.2z"/>
	</g>
	<g>
		<path fill="#83A4D4" d="M187.2,106.1c-0.7,0-1.4-0.2-1.9-0.7c-1.2-1.2-1.2-2.9,0-3.8l4.8-4.8c1.2-1.2,2.9-1.2,3.8,0
			c1.2,1.2,1.2,2.9,0,3.8l-4.8,4.8C188.7,105.8,188,106.1,187.2,106.1z"/>
	</g>
	<g>
		<path fill="#83A4D4" d="M176.4,116.6c-0.7,0-1.4-0.2-1.9-0.7c-1.2-1.2-1.2-2.9,0-3.8l4.8-4.8c1.2-1.2,2.9-1.2,3.8,0
			c1.2,1.2,1.2,2.9,0,3.8l-4.8,4.8C177.9,116.4,177.2,116.6,176.4,116.6z"/>
	</g>
	<g>
		<path fill="#83A4D4" d="M233.8,182.9H121c-1.4,0-2.9-1.2-2.9-2.9v-76.8c0-1.4,1.2-2.9,2.9-2.9h33.6c1.4,0,2.9,1.2,2.9,2.9
			s-1.2,2.9-2.9,2.9h-30.7v71.3h107.3v-71.3h-31c-1.2,0-2.2-0.7-2.6-1.7c-0.5-1-0.2-2.2,0.7-3.1L244.6,55l-8.9-8.9L212,69.8
			c-1.2,1.2-2.9,1.2-3.8,0s-1.2-2.9,0-3.8L234,40.1c1.2-1.2,2.9-1.2,3.8,0l12.7,12.7c1.2,1.2,1.2,2.9,0,3.8l-43.7,43.7H234
			c1.4,0,2.9,1.2,2.9,2.9v77C236.7,181.7,235.5,182.9,233.8,182.9z"/>
	</g>
	<g>
		<path fill="#83A4D4" d="M171.6,134.4c-0.7,0-1.4-0.2-1.9-0.7c-1.2-1.2-1.2-2.9,0-3.8l16.6-16.6c1.2-1.2,2.9-1.2,3.8,0
			s1.2,2.9,0,3.8l-16.6,16.6C173.1,134.2,172.4,134.4,171.6,134.4z"/>
	</g>
</g>
</svg>
