<!-- Generator: Adobe Illustrator 18.1.1, SVG Export Plug-In . SVG Version: 6.00 Build 0)  -->
<svg version="1.1" id="logo" xmlns="http://www.w3.org/2000/svg" xmlns:xlink="http://www.w3.org/1999/xlink" x="0px" y="0px"
	 viewBox="0 0 300 300" style="enable-background:new 0 0 300 300;" xml:space="preserve">
<style type="text/css">
	.st0{fill:none;stroke:#fff;stroke-width:6;stroke-linecap:round;stroke-linejoin:round;stroke-miterlimit:10;}
	.st1{fill:none;stroke:#fff;stroke-width:6;stroke-miterlimit:10;}
	.st0{
	  stroke-dasharray: 1300;
	  stroke-dashoffset: 0;
	  animation: dash 4s linear forwards infinite;
	}
	@keyframes dash {
	  from{
	    stroke-dashoffset: 1300;
	  }
	  to{
	    stroke-dashoffset: 0;
	  }
	}
	.st1{
		stroke-dasharray: 900;
		stroke-dashoffset: 0;
		animation: dash 4s linear forwards infinite;
	}
	@keyframes dash {
		from{
			stroke-dashoffset: 900;
		}
		to{
			stroke-dashoffset: 0;
		}
	}
</style>

<path class="st0" d="M154.3,226.1c0,0-16.7,14.1-44.3,12.2c-27.2-2-77.4-28.5-82.8-101C21.8,65.4,62,14.2,103.5,8.7
	c41.1-5.4,69.9,24.9,79.9,42.9c12.4,22.3,19.4,43,18.2,79c-1.8,53.6-30,75.2-46.5,94.2c-6.8,7.8-8.2,18.6-5.7,29.6
	c10.5,44.6,78.5,46.1,100,26.6c24.3-19.3,22.7-42.4,22.7-80.4c0.1-96.3-0.4-185.7-0.4-185.7H236"/>
<path class="st1" d="M120.3,82.2c0,0,10.9-1.3,21,11.1c4.8,5.9,9.5,14.9,9.5,28.3c0,11.3-3.5,19.4-7.2,25.2
	c-9.4,14.6-23.2,14.2-23.2,14.2"/>
<path class="st1" d="M232,229.3c0,0,0.8,6.1-6.1,12c-3.3,2.8-8.3,5.5-15.9,5.6c-6.4,0.1-11-1.8-14.3-3.8c-8.4-5.2-8.3-13-8.3-13"/>
</svg>
